<svg width="800" height="400" xmlns="http://www.w3.org/2000/svg">
  <defs>
    <linearGradient id="profitGradient" x1="0%" y1="0%" x2="0%" y2="100%">
      <stop offset="0%" style="stop-color:#8b5cf6;stop-opacity:0.8" />
      <stop offset="100%" style="stop-color:#8b5cf6;stop-opacity:0.1" />
    </linearGradient>
    <linearGradient id="bandGradient" x1="0%" y1="0%" x2="0%" y2="100%">
      <stop offset="0%" style="stop-color:#f59e0b;stop-opacity:0.3" />
      <stop offset="100%" style="stop-color:#f59e0b;stop-opacity:0.1" />
    </linearGradient>
  </defs>
  
  <!-- Background -->
  <rect width="800" height="400" fill="#1f2937"/>
  
  <!-- Title -->
  <text x="400" y="30" text-anchor="middle" fill="#f9fafb" font-family="Arial, sans-serif" font-size="18" font-weight="bold">
    Bollinger Bands Strategy Performance - ADA/USDT (Jan 2024)
  </text>
  
  <!-- Grid lines -->
  <g stroke="#374151" stroke-width="0.5" opacity="0.5">
    <line x1="80" y1="50" x2="80" y2="350"/>
    <line x1="80" y1="350" x2="720" y2="350"/>
    <!-- Horizontal grid -->
    <line x1="80" y1="100" x2="720" y2="100"/>
    <line x1="80" y1="150" x2="720" y2="150"/>
    <line x1="80" y1="200" x2="720" y2="200"/>
    <line x1="80" y1="250" x2="720" y2="250"/>
    <line x1="80" y1="300" x2="720" y2="300"/>
    <!-- Vertical grid -->
    <line x1="180" y1="50" x2="180" y2="350"/>
    <line x1="280" y1="50" x2="280" y2="350"/>
    <line x1="380" y1="50" x2="380" y2="350"/>
    <line x1="480" y1="50" x2="480" y2="350"/>
    <line x1="580" y1="50" x2="580" y2="350"/>
    <line x1="680" y1="50" x2="680" y2="350"/>
  </g>
  
  <!-- Y-axis labels (Portfolio Value) -->
  <g fill="#9ca3af" font-family="Arial, sans-serif" font-size="12">
    <text x="75" y="105" text-anchor="end">$1300</text>
    <text x="75" y="155" text-anchor="end">$1250</text>
    <text x="75" y="205" text-anchor="end">$1200</text>
    <text x="75" y="255" text-anchor="end">$1150</text>
    <text x="75" y="305" text-anchor="end">$1100</text>
    <text x="75" y="355" text-anchor="end">$1000</text>
  </g>
  
  <!-- X-axis labels (Dates) -->
  <g fill="#9ca3af" font-family="Arial, sans-serif" font-size="10">
    <text x="80" y="370" text-anchor="middle">Jan 1</text>
    <text x="180" y="370" text-anchor="middle">Jan 5</text>
    <text x="280" y="370" text-anchor="middle">Jan 10</text>
    <text x="380" y="370" text-anchor="middle">Jan 15</text>
    <text x="480" y="370" text-anchor="middle">Jan 20</text>
    <text x="580" y="370" text-anchor="middle">Jan 25</text>
    <text x="680" y="370" text-anchor="middle">Jan 26</text>
  </g>
  
  <!-- Bollinger Bands (background area) -->
  <polygon fill="url(#bandGradient)" opacity="0.3" points="
    80,180 130,175 180,170 230,165 280,160 330,155 380,150 430,145 480,140 530,135 580,130 630,125 680,120
    680,220 630,225 580,230 530,235 480,240 430,245 380,250 330,255 280,260 230,265 180,270 130,275 80,280
  "/>
  
  <!-- Portfolio value line -->
  <polyline fill="none" stroke="#8b5cf6" stroke-width="3" points="
    80,350 105,350 130,330 155,315 180,300 205,290 230,290 255,290 280,290 305,280 330,265 355,250 380,235 405,235 430,235 455,220 480,205 505,190 530,175 555,175
  "/>
  
  <!-- Portfolio value area fill -->
  <polygon fill="url(#profitGradient)" points="
    80,350 105,350 130,330 155,315 180,300 205,290 230,290 255,290 280,290 305,280 330,265 355,250 380,235 405,235 430,235 455,220 480,205 505,190 530,175 555,175 555,350 80,350
  "/>
  
  <!-- Price line (within bands) -->
  <polyline fill="none" stroke="#f59e0b" stroke-width="2" opacity="0.8" points="
    80,230 105,240 130,220 155,200 180,185 205,170 230,175 255,190 280,205 305,195 330,180 355,165 380,150 405,160 430,175 455,165 480,150 505,140 530,130 555,135
  "/>
  
  <!-- Buy/Sell markers -->
  <g>
    <!-- Buy markers (green circles) -->
    <circle cx="130" cy="330" r="4" fill="#10b981" stroke="#065f46" stroke-width="2"/>
    <circle cx="280" cy="290" r="4" fill="#10b981" stroke="#065f46" stroke-width="2"/>
    <circle cx="455" cy="220" r="4" fill="#10b981" stroke="#065f46" stroke-width="2"/>
    
    <!-- Sell markers (red circles) -->
    <circle cx="180" cy="300" r="4" fill="#ef4444" stroke="#991b1b" stroke-width="2"/>
    <circle cx="380" cy="235" r="4" fill="#ef4444" stroke="#991b1b" stroke-width="2"/>
    <circle cx="530" cy="175" r="4" fill="#ef4444" stroke="#991b1b" stroke-width="2"/>
  </g>
  
  <!-- Legend -->
  <g>
    <rect x="580" y="60" width="130" height="100" fill="#374151" stroke="#4b5563" rx="5"/>
    <line x1="590" y1="80" x2="610" y2="80" stroke="#8b5cf6" stroke-width="3"/>
    <text x="615" y="85" fill="#f9fafb" font-family="Arial, sans-serif" font-size="11">Portfolio Value</text>
    <line x1="590" y1="100" x2="610" y2="100" stroke="#f59e0b" stroke-width="2"/>
    <text x="615" y="105" fill="#f9fafb" font-family="Arial, sans-serif" font-size="11">Price</text>
    <rect x="590" y="115" width="20" height="8" fill="#f59e0b" opacity="0.3"/>
    <text x="615" y="125" fill="#f9fafb" font-family="Arial, sans-serif" font-size="11">Bollinger Bands</text>
    <circle cx="600" cy="140" r="3" fill="#10b981"/>
    <text x="615" y="145" fill="#f9fafb" font-family="Arial, sans-serif" font-size="11">Buy Signal</text>
    <circle cx="600" cy="155" r="3" fill="#ef4444"/>
    <text x="615" y="160" fill="#f9fafb" font-family="Arial, sans-serif" font-size="11">Sell Signal</text>
  </g>
  
  <!-- Performance stats -->
  <g fill="#f9fafb" font-family="Arial, sans-serif" font-size="12">
    <text x="100" y="385">Total Return: +29.48% | Sharpe Ratio: 1.25 | Max Drawdown: -2.8% | Win Rate: 80.0%</text>
  </g>
</svg>