<svg width="1200" height="800" xmlns="http://www.w3.org/2000/svg">
  <!-- Background -->
  <rect width="1200" height="800" fill="#f8fafc"/>
  
  <!-- Header -->
  <rect x="0" y="0" width="1200" height="60" fill="#1e293b"/>
  <text x="20" y="35" fill="#f1f5f9" font-family="Arial, sans-serif" font-size="18" font-weight="bold">TradingBot Pro - Bot Management</text>
  <text x="1050" y="35" fill="#94a3b8" font-family="Arial, sans-serif" font-size="14">4 Active Bots</text>
  
  <!-- Sidebar -->
  <rect x="0" y="60" width="240" height="740" fill="#334155"/>
  <g fill="#e2e8f0" font-family="Arial, sans-serif" font-size="14">
    <text x="20" y="100">📊 Dashboard</text>
    <rect x="10" y="110" width="220" height="40" fill="#475569" rx="5"/>
    <text x="20" y="135">🤖 Trading Bots</text>
    <text x="20" y="170">📈 Performance</text>
    <text x="20" y="200">⚙️ Settings</text>
  </g>
  
  <!-- Main Content -->
  <rect x="240" y="60" width="960" height="740" fill="#f8fafc"/>
  
  <!-- Page Header -->
  <g transform="translate(260, 80)">
    <text x="0" y="25" fill="#0f172a" font-family="Arial, sans-serif" font-size="24" font-weight="bold">Trading Bots</text>
    <rect x="750" y="0" width="120" height="35" fill="#3b82f6" rx="6"/>
    <text x="810" y="22" fill="#ffffff" font-family="Arial, sans-serif" font-size="14" text-anchor="middle">+ New Bot</text>
  </g>
  
  <!-- Bot Cards Grid -->
  <g transform="translate(260, 130)">
    <!-- Bot 1: BTC RSI Strategy -->
    <g>
      <rect x="0" y="0" width="280" height="200" fill="#ffffff" stroke="#e2e8f0" rx="8"/>
      <rect x="0" y="0" width="280" height="40" fill="#10b981" rx="8 8 0 0"/>
      <text x="15" y="25" fill="#ffffff" font-family="Arial, sans-serif" font-size="14" font-weight="bold">BTC RSI Strategy</text>
      <circle cx="250" cy="20" r="8" fill="#ffffff"/>
      <text x="250" y="25" fill="#10b981" font-family="Arial, sans-serif" font-size="10" text-anchor="middle">●</text>
      
      <g transform="translate(15, 55)" fill="#0f172a" font-family="Arial, sans-serif" font-size="12">
        <text x="0" y="0" fill="#64748b">Pair:</text>
        <text x="50" y="0">BTC/USDT</text>
        <text x="0" y="20" fill="#64748b">Balance:</text>
        <text x="50" y="20">$2,500.00</text>
        <text x="0" y="40" fill="#64748b">P&L:</text>
        <text x="50" y="40" fill="#10b981">+$127.45 (5.1%)</text>
        <text x="0" y="60" fill="#64748b">Status:</text>
        <text x="50" y="60" fill="#10b981">Running</text>
        <text x="0" y="80" fill="#64748b">Runtime:</text>
        <text x="50" y="80">2d 14h 32m</text>
      </g>
      
      <!-- Action Buttons -->
      <g transform="translate(15, 160)">
        <rect x="0" y="0" width="60" height="25" fill="#ef4444" rx="4"/>
        <text x="30" y="16" fill="#ffffff" font-family="Arial, sans-serif" font-size="11" text-anchor="middle">Stop</text>
        <rect x="70" y="0" width="60" height="25" fill="#64748b" rx="4"/>
        <text x="100" y="16" fill="#ffffff" font-family="Arial, sans-serif" font-size="11" text-anchor="middle">Edit</text>
        <rect x="140" y="0" width="60" height="25" fill="#3b82f6" rx="4"/>
        <text x="170" y="16" fill="#ffffff" font-family="Arial, sans-serif" font-size="11" text-anchor="middle">View</text>
      </g>
    </g>
    
    <!-- Bot 2: ETH SMA Crossover -->
    <g transform="translate(300, 0)">
      <rect x="0" y="0" width="280" height="200" fill="#ffffff" stroke="#e2e8f0" rx="8"/>
      <rect x="0" y="0" width="280" height="40" fill="#10b981" rx="8 8 0 0"/>
      <text x="15" y="25" fill="#ffffff" font-family="Arial, sans-serif" font-size="14" font-weight="bold">ETH SMA Crossover</text>
      <circle cx="250" cy="20" r="8" fill="#ffffff"/>
      <text x="250" y="25" fill="#10b981" font-family="Arial, sans-serif" font-size="10" text-anchor="middle">●</text>
      
      <g transform="translate(15, 55)" fill="#0f172a" font-family="Arial, sans-serif" font-size="12">
        <text x="0" y="0" fill="#64748b">Pair:</text>
        <text x="50" y="0">ETH/USDT</text>
        <text x="0" y="20" fill="#64748b">Balance:</text>
        <text x="50" y="20">$1,800.00</text>
        <text x="0" y="40" fill="#64748b">P&L:</text>
        <text x="50" y="40" fill="#10b981">+$89.23 (4.9%)</text>
        <text x="0" y="60" fill="#64748b">Status:</text>
        <text x="50" y="60" fill="#10b981">Running</text>
        <text x="0" y="80" fill="#64748b">Runtime:</text>
        <text x="50" y="80">1d 8h 15m</text>
      </g>
      
      <!-- Action Buttons -->
      <g transform="translate(15, 160)">
        <rect x="0" y="0" width="60" height="25" fill="#ef4444" rx="4"/>
        <text x="30" y="16" fill="#ffffff" font-family="Arial, sans-serif" font-size="11" text-anchor="middle">Stop</text>
        <rect x="70" y="0" width="60" height="25" fill="#64748b" rx="4"/>
        <text x="100" y="16" fill="#ffffff" font-family="Arial, sans-serif" font-size="11" text-anchor="middle">Edit</text>
        <rect x="140" y="0" width="60" height="25" fill="#3b82f6" rx="4"/>
        <text x="170" y="16" fill="#ffffff" font-family="Arial, sans-serif" font-size="11" text-anchor="middle">View</text>
      </g>
    </g>
    
    <!-- Bot 3: ADA Grid Trading (Paused) -->
    <g transform="translate(0, 220)">
      <rect x="0" y="0" width="280" height="200" fill="#ffffff" stroke="#e2e8f0" rx="8"/>
      <rect x="0" y="0" width="280" height="40" fill="#f59e0b" rx="8 8 0 0"/>
      <text x="15" y="25" fill="#ffffff" font-family="Arial, sans-serif" font-size="14" font-weight="bold">ADA Grid Trading</text>
      <circle cx="250" cy="20" r="8" fill="#ffffff"/>
      <text x="250" y="25" fill="#f59e0b" font-family="Arial, sans-serif" font-size="10" text-anchor="middle">⏸</text>
      
      <g transform="translate(15, 55)" fill="#0f172a" font-family="Arial, sans-serif" font-size="12">
        <text x="0" y="0" fill="#64748b">Pair:</text>
        <text x="50" y="0">ADA/USDT</text>
        <text x="0" y="20" fill="#64748b">Balance:</text>
        <text x="50" y="20">$1,200.00</text>
        <text x="0" y="40" fill="#64748b">P&L:</text>
        <text x="50" y="40" fill="#64748b">+$12.34 (1.0%)</text>
        <text x="0" y="60" fill="#64748b">Status:</text>
        <text x="50" y="60" fill="#f59e0b">Paused</text>
        <text x="0" y="80" fill="#64748b">Runtime:</text>
        <text x="50" y="80">3h 22m</text>
      </g>
      
      <!-- Action Buttons -->
      <g transform="translate(15, 160)">
        <rect x="0" y="0" width="60" height="25" fill="#10b981" rx="4"/>
        <text x="30" y="16" fill="#ffffff" font-family="Arial, sans-serif" font-size="11" text-anchor="middle">Start</text>
        <rect x="70" y="0" width="60" height="25" fill="#64748b" rx="4"/>
        <text x="100" y="16" fill="#ffffff" font-family="Arial, sans-serif" font-size="11" text-anchor="middle">Edit</text>
        <rect x="140" y="0" width="60" height="25" fill="#3b82f6" rx="4"/>
        <text x="170" y="16" fill="#ffffff" font-family="Arial, sans-serif" font-size="11" text-anchor="middle">View</text>
      </g>
    </g>
    
    <!-- Bot 4: DOT MACD Strategy -->
    <g transform="translate(300, 220)">
      <rect x="0" y="0" width="280" height="200" fill="#ffffff" stroke="#e2e8f0" rx="8"/>
      <rect x="0" y="0" width="280" height="40" fill="#10b981" rx="8 8 0 0"/>
      <text x="15" y="25" fill="#ffffff" font-family="Arial, sans-serif" font-size="14" font-weight="bold">DOT MACD Strategy</text>
      <circle cx="250" cy="20" r="8" fill="#ffffff"/>
      <text x="250" y="25" fill="#10b981" font-family="Arial, sans-serif" font-size="10" text-anchor="middle">●</text>
      
      <g transform="translate(15, 55)" fill="#0f172a" font-family="Arial, sans-serif" font-size="12">
        <text x="0" y="0" fill="#64748b">Pair:</text>
        <text x="50" y="0">DOT/USDT</text>
        <text x="0" y="20" fill="#64748b">Balance:</text>
        <text x="50" y="20">$3,200.00</text>
        <text x="0" y="40" fill="#64748b">P&L:</text>
        <text x="50" y="40" fill="#10b981">+$71.12 (2.2%)</text>
        <text x="0" y="60" fill="#64748b">Status:</text>
        <text x="50" y="60" fill="#10b981">Running</text>
        <text x="0" y="80" fill="#64748b">Runtime:</text>
        <text x="50" y="80">5d 2h 45m</text>
      </g>
      
      <!-- Action Buttons -->
      <g transform="translate(15, 160)">
        <rect x="0" y="0" width="60" height="25" fill="#ef4444" rx="4"/>
        <text x="30" y="16" fill="#ffffff" font-family="Arial, sans-serif" font-size="11" text-anchor="middle">Stop</text>
        <rect x="70" y="0" width="60" height="25" fill="#64748b" rx="4"/>
        <text x="100" y="16" fill="#ffffff" font-family="Arial, sans-serif" font-size="11" text-anchor="middle">Edit</text>
        <rect x="140" y="0" width="60" height="25" fill="#3b82f6" rx="4"/>
        <text x="170" y="16" fill="#ffffff" font-family="Arial, sans-serif" font-size="11" text-anchor="middle">View</text>
      </g>
    </g>
  </g>
  
  <!-- Bot Configuration Panel -->
  <g transform="translate(620, 130)">
    <rect x="0" y="0" width="320" height="440" fill="#ffffff" stroke="#e2e8f0" rx="8"/>
    <rect x="0" y="0" width="320" height="40" fill="#3b82f6" rx="8 8 0 0"/>
    <text x="15" y="25" fill="#ffffff" font-family="Arial, sans-serif" font-size="14" font-weight="bold">Quick Bot Setup</text>
    
    <g transform="translate(15, 55)" font-family="Arial, sans-serif" font-size="12">
      <!-- Strategy Selection -->
      <text x="0" y="0" fill="#64748b">Strategy:</text>
      <rect x="0" y="10" width="290" height="30" fill="#f8fafc" stroke="#e2e8f0" rx="4"/>
      <text x="10" y="28" fill="#0f172a">RSI Oversold/Overbought ▼</text>
      
      <!-- Trading Pair -->
      <text x="0" y="60" fill="#64748b">Trading Pair:</text>
      <rect x="0" y="70" width="290" height="30" fill="#f8fafc" stroke="#e2e8f0" rx="4"/>
      <text x="10" y="88" fill="#0f172a">BTC/USDT ▼</text>
      
      <!-- Investment Amount -->
      <text x="0" y="120" fill="#64748b">Investment Amount:</text>
      <rect x="0" y="130" width="290" height="30" fill="#f8fafc" stroke="#e2e8f0" rx="4"/>
      <text x="10" y="148" fill="#0f172a">$1000.00</text>
      
      <!-- Risk Level -->
      <text x="0" y="180" fill="#64748b">Risk Level:</text>
      <g transform="translate(0, 190)">
        <rect x="0" y="0" width="90" height="25" fill="#10b981" rx="4"/>
        <text x="45" y="16" fill="#ffffff" font-size="11" text-anchor="middle">Low</text>
        <rect x="100" y="0" width="90" height="25" fill="#f8fafc" stroke="#e2e8f0" rx="4"/>
        <text x="145" y="16" fill="#64748b" font-size="11" text-anchor="middle">Medium</text>
        <rect x="200" y="0" width="90" height="25" fill="#f8fafc" stroke="#e2e8f0" rx="4"/>
        <text x="245" y="16" fill="#64748b" font-size="11" text-anchor="middle">High</text>
      </g>
      
      <!-- Advanced Settings -->
      <text x="0" y="240" fill="#64748b">Advanced Settings:</text>
      <g transform="translate(0, 250)">
        <text x="0" y="0" fill="#64748b" font-size="11">Stop Loss:</text>
        <rect x="80" y="-10" width="100" height="20" fill="#f8fafc" stroke="#e2e8f0" rx="2"/>
        <text x="130" y="2" fill="#0f172a" font-size="11" text-anchor="middle">5%</text>
        
        <text x="0" y="25" fill="#64748b" font-size="11">Take Profit:</text>
        <rect x="80" y="15" width="100" height="20" fill="#f8fafc" stroke="#e2e8f0" rx="2"/>
        <text x="130" y="27" fill="#0f172a" font-size="11" text-anchor="middle">15%</text>
        
        <text x="0" y="50" fill="#64748b" font-size="11">RSI Period:</text>
        <rect x="80" y="40" width="100" height="20" fill="#f8fafc" stroke="#e2e8f0" rx="2"/>
        <text x="130" y="52" fill="#0f172a" font-size="11" text-anchor="middle">14</text>
      </g>
      
      <!-- Create Bot Button -->
      <rect x="0" y="320" width="290" height="40" fill="#10b981" rx="6"/>
      <text x="145" y="343" fill="#ffffff" font-size="14" font-weight="bold" text-anchor="middle">Create Bot</text>
    </g>
  </g>
  
  <!-- Performance Summary -->
  <g transform="translate(260, 590)">
    <rect x="0" y="0" width="680" height="120" fill="#ffffff" stroke="#e2e8f0" rx="8"/>
    <text x="15" y="25" fill="#0f172a" font-family="Arial, sans-serif" font-size="16" font-weight="bold">Portfolio Summary</text>
    
    <g transform="translate(15, 45)" font-family="Arial, sans-serif" font-size="12">
      <g fill="#64748b">
        <text x="0" y="0">Total Investment:</text>
        <text x="150" y="0">Active Bots:</text>
        <text x="300" y="0">Total P&L:</text>
        <text x="450" y="0">Success Rate:</text>
      </g>
      
      <g fill="#0f172a" font-weight="bold">
        <text x="0" y="20">$8,700.00</text>
        <text x="150" y="20">3 Running, 1 Paused</text>
        <text x="300" y="20" fill="#10b981">+$300.14 (3.4%)</text>
        <text x="450" y="20">78.5%</text>
      </g>
      
      <g fill="#64748b" font-size="11">
        <text x="0" y="40">Across 4 trading bots</text>
        <text x="150" y="40">Last 24 hours</text>
        <text x="300" y="40">This month</text>
        <text x="450" y="40">Last 30 trades</text>
      </g>
    </g>
  </g>
</svg>